<svg xmlns="http://www.w3.org/2000/svg" width="36" height="36" viewBox="0 0 36 36"><path d="M21.7 24c.9-1 2.4-2.4 4.6-2.9.3-.1.4-.1.4-.1v-.1c0-.1-.2-.2-.3-.3-.1-.1-.1-.1-.2-.1-.3-.2-.5-.5-.7-.7-.2-.2-.8-1.4-1.2-2.4l-.2-.4c-.3-.6-.6-1.2-1-1.8-.7-1.1-1.7-2.1-2.7-3-1.9-1.5-4.2-2.3-6.6-2.3-.4 0-.8 0-1.2.1-2.8.3-5.4 1.7-7.1 3.9-2.9 3.6-2.3 9 1.3 11.9 1.2.9 2.7 1.5 4.2 1.5.9 0 1.7-.2 2.5-.5 1.1-.4 2-1.1 2.7-2 .9-1.1 1.3-2.5 1.1-3.9-.2-1.4-.8-2.7-1.9-3.5-.7-.6-1.7-.9-2.6-.9-1.3 0-2.5.6-3.3 1.6-1.1 1.4-.9 3.5.5 4.6.5.4 1.2.6 1.9.5.7-.1 1.3-.4 1.7-.9.7-.9.5-2.1-.3-2.8-.3-.4-.7-.5-1.1-.5-.4 0-.8.2-1 .6H11c-.1 0-.2 0-.2-.1-.1-.1-.1-.3-.1-.3.4-.4.9-.7 1.5-.8.6-.1 1.1.1 1.6.5 1.1.9 1.3 2.6.4 3.7-.5.7-1.3 1.1-2.1 1.2-.9.1-1.7-.2-2.3-.7-1.7-1.4-1.9-3.8-.6-5.5.9-1.1 2.3-1.8 3.8-1.8 1.1 0 2.2.4 3 1.1 1.2 1 2 2.4 2.2 4 .2 1.6-.3 3.1-1.3 4.4-.3.4-.6.7-1 1-.1 0-.2.1-.3.2-.2.1-.6.4-.7.6v.1c.1.1.5.2 1.2.2 1.2 0 2.2-.2 3.2-.8.9-.9 1.9-2 2.4-2.6z"/><path d="M31.3 18.8c-.2-.2-.6-1-.7-1.2-.2-.6-.3-1.5-.1-2.3l.1-.2c.1-.2.1-.4.1-.7 0-.2 0-.3-.2-.4-.1-.1-.3-.1-.4 0v-2.9c.2-.1.3-.2.3-.5s-.2-.5-.5-.5-.5.2-.5.5c0 .2.1.4.3.4v3c-.1.1-.3.1-.4.2l-.1.1c-.1 0-.1.1-.2.1l-.1.1v-2.3c.2-.1.3-.2.3-.4 0-.3-.2-.5-.5-.5s-.5.2-.5.5c0 .2.1.4.3.5v2.6c-.3.3-.4.7-.5 1.2-.1.5-.1 1.1-.1 1.6 0 .2 0 .3.1.5 0 .3.1.6.1.9v.1c0 .3.1 1.4-.7 2.1-.2.2-.7.3-1.1.5-.2.1-.5.1-.7.2-.4.1-.7.3-1.2.6-.7.4-1.5 1-2.1 1.7l-.6.6c-.5.5-.9 1-1.3 1.3-.5.4-1 .8-1.8 1.1h2.7c1.5 0 3.7 0 5.1-.1 2.9-.2 6-2.3 6-5.2 0-1.1-.4-2.3-1.1-3.2z"/></svg>